<?xml version="1.0" encoding="UTF-8"?>
<svg width="400px" height="400px" viewBox="0 0 400 400" version="1.1" xmlns="http://www.w3.org/2000/svg" xmlns:xlink="http://www.w3.org/1999/xlink">
    <!-- Generator: Sketch 47.1 (45422) - http://www.bohemiancoding.com/sketch -->
    <title>logo</title>
    <desc>Created with Sketch.</desc>
    <defs></defs>
    <g id="Page-1" stroke="none" stroke-width="1" fill="none" fill-rule="evenodd">
        <g id="logo">
            <g id="Icon" transform="translate(-0.800000, -0.200000)">
                <rect id="Rectangle" fill="#574FB7" x="0.8" y="0.2" width="400" height="400" rx="100"></rect>
                <g id="Left" transform="translate(60.000000, 133.000000)" fill="#FFFFFF">
                    <rect id="Rectangle-7" x="0" y="57.6" width="19.2" height="19.2"></rect>
                    <rect id="Rectangle-7" x="19.2" y="76.8" width="19.2" height="19.2"></rect>
                    <rect id="Rectangle-7" x="38.4" y="96" width="19.2" height="19.2"></rect>
                    <rect id="Rectangle-7" x="57.6" y="115.2" width="19.2" height="19.2"></rect>
                    <rect id="Rectangle-7" x="19.2" y="38.4" width="19.2" height="19.2"></rect>
                    <rect id="Rectangle-7" x="38.4" y="19.2" width="19.2" height="19.2"></rect>
                    <rect id="Rectangle-7" x="57.6" y="0" width="19.2" height="19.2"></rect>
                </g>
                <g id="Right" transform="translate(303.200000, 200.200000) scale(-1, 1) translate(-303.200000, -200.200000) translate(264.800000, 133.000000)" fill="#FFFFFF">
                    <rect id="Rectangle-7" x="0" y="57.6" width="19.2" height="19.2"></rect>
                    <rect id="Rectangle-7" x="19.2" y="76.8" width="19.2" height="19.2"></rect>
                    <rect id="Rectangle-7" x="38.4" y="96" width="19.2" height="19.2"></rect>
                    <rect id="Rectangle-7" x="57.6" y="115.2" width="19.2" height="19.2"></rect>
                    <rect id="Rectangle-7" x="19.2" y="38.4" width="19.2" height="19.2"></rect>
                    <rect id="Rectangle-7" x="38.4" y="19.2" width="19.2" height="19.2"></rect>
                    <rect id="Rectangle-7" x="57.6" y="0" width="19.2" height="19.2"></rect>
                </g>
                <g id="Slash" transform="translate(162.400000, 152.200000)" fill="#FFFFFF">
                    <rect id="Rectangle-7" x="0" y="96" width="19.2" height="19.2"></rect>
                    <rect id="Rectangle-7" x="19.2" y="76.8" width="19.2" height="19.2"></rect>
                    <rect id="Rectangle-7" x="19.2" y="57.6" width="19.2" height="19.2"></rect>
                    <rect id="Rectangle-7" x="38.4" y="38.4" width="19.2" height="19.2"></rect>
                    <rect id="Rectangle-7" x="38.4" y="19.2" width="19.2" height="19.2"></rect>
                    <rect id="Rectangle-7" x="57.6" y="0" width="19.2" height="19.2"></rect>
                </g>
            </g>
        </g>
    </g>
</svg>